<?xml version="1.0" encoding="UTF-8" standalone="no"?>
<svg
   xmlns:dc="http://purl.org/dc/elements/1.1/"
   xmlns:cc="http://creativecommons.org/ns#"
   xmlns:rdf="http://www.w3.org/1999/02/22-rdf-syntax-ns#"
   xmlns:svg="http://www.w3.org/2000/svg"
   xmlns="http://www.w3.org/2000/svg"
   xmlns:sodipodi="http://sodipodi.sourceforge.net/DTD/sodipodi-0.dtd"
   xmlns:inkscape="http://www.inkscape.org/namespaces/inkscape"
   sodipodi:docname="hm6.svg"
   inkscape:version="1.0 (4035a4fb49, 2020-05-01)"
   id="svg20"
   version="1.1"
   viewBox="0 0 198.4375 330.72918"
   height="1250"
   width="750">
  <defs
     id="defs14" />
  <sodipodi:namedview
     inkscape:window-maximized="1"
     inkscape:window-y="-8"
     inkscape:window-x="-8"
     inkscape:window-height="1017"
     inkscape:window-width="1920"
     units="px"
     showgrid="false"
     inkscape:document-rotation="0"
     inkscape:current-layer="layer1"
     inkscape:document-units="mm"
     inkscape:cy="625"
     inkscape:cx="375"
     inkscape:zoom="0.68"
     inkscape:pageshadow="2"
     inkscape:pageopacity="0.0"
     borderopacity="1.0"
     bordercolor="#666666"
     pagecolor="#ffffff"
     id="base" />
  <metadata
     id="metadata17">
    <rdf:RDF>
      <cc:Work
         rdf:about="">
        <dc:format>image/svg+xml</dc:format>
        <dc:type
           rdf:resource="http://purl.org/dc/dcmitype/StillImage" />
        <dc:title></dc:title>
      </cc:Work>
    </rdf:RDF>
  </metadata>
  <g
     id="layer1"
     inkscape:groupmode="layer"
     inkscape:label="Ebene 1">
    <path
       d="m 17.592092,312.57679 c 1.735561,-0.0396 3.471865,-0.0246 5.207708,-0.0156 1.323345,0.0201 2.59324,-0.21709 3.852025,-0.59624 0.919353,-0.35944 1.883365,-0.59563 2.789841,-0.98528 1.101918,-0.48713 2.29361,-0.60844 3.480734,-0.69424 1.28424,-0.0934 2.56146,-0.0736 3.83699,0.093 1.238859,0.21455 2.482644,0.1764 3.72572,0.0345 1.493364,-0.27141 3.001348,-0.41764 4.51549,-0.50188 1.426096,-0.0667 2.853812,-0.0777 4.281196,-0.0756 1.413889,0.007 2.827764,0.003 4.241657,0 1.426028,0.003 2.852061,0.005 4.278091,0.006 1.214239,-0.11309 2.367404,0.16835 3.540021,0.42635 1.107395,0.24526 2.24236,0.27397 3.367733,0.36864 1.038043,0.0632 2.011818,0.27157 2.98631,0.61725 0.994423,0.35827 2.049304,0.44397 3.095593,0.5076 1.108837,0.0433 2.218995,0.0436 3.328498,0.0364 1.362687,-0.0805 2.718584,-0.23661 4.081884,-0.31512 1.183589,-0.08 2.371092,-0.0433 3.555177,-0.0985 1.135096,-0.0829 2.229956,-0.31234 3.322576,-0.61809 1.233194,-0.37126 2.498992,-0.46239 3.778012,-0.41698 1.477664,0.0293 2.93506,0.2676 4.398267,0.4477 1.475708,0.16931 2.918767,0.52588 4.38954,0.73707 1.612998,0.1592 3.218715,0.37944 4.833915,0.51631 1.70108,0.18346 3.35972,-0.29853 5.0112,-0.63042 1.47834,-0.31086 2.79323,-1.10014 4.18905,-1.64534 1.13351,-0.44275 1.32098,-0.46024 2.49497,-0.78018 1.99809,-0.49418 4.04747,-0.65217 6.09692,-0.72448 1.93176,-0.036 3.85553,0.0532 5.77493,-0.19597 2.74427,-0.41074 5.52458,-0.4693 8.29007,-0.6494 2.11005,-0.26151 4.21311,-0.59531 6.30121,-0.99689 1.58522,-0.34505 3.20601,-0.41527 4.82178,-0.46332 1.70845,-0.0338 3.41724,-0.0306 5.12592,-0.0289 1.84011,0.027 3.6798,-0.005 5.51979,-0.0183 2.00412,-0.0317 4.01092,0.0944 6.01125,-0.0589 2.1788,-0.22445 4.36943,-0.27189 6.5578,-0.30504 2.26275,0.0175 4.52929,-0.0853 6.79016,0.0304 1.76702,0.17553 3.18345,1.06292 4.43297,2.26711 0.39371,0.5419 0.8135,1.05966 1.25783,1.5602 0,0 4.8994,-2.97458 4.8994,-2.97458 v 0 c -0.4725,-0.49384 -0.9095,-1.01378 -1.30802,-1.57049 -1.32758,-1.27254 -2.8081,-2.30412 -4.66581,-2.59879 -2.29177,-0.12681 -4.59278,0.006 -6.88688,-0.007 -2.16314,0.0249 -4.33218,0 -6.48831,0.2013 -2.0172,0.20338 -4.03923,0.16473 -6.06578,0.16124 -1.81828,-0.0148 -3.63624,-0.0487 -5.4547,-0.0284 -1.7126,-0.003 -3.42549,-0.0124 -5.13787,0.0188 -1.62665,0.0355 -3.26908,0.0445 -4.8683,0.37881 -2.10577,0.42153 -4.21973,0.79796 -6.34443,1.11548 -2.74565,0.21278 -5.50493,0.25265 -8.24005,0.56393 -0.24557,0.0374 -1.50659,0.23519 -1.75707,0.2507 -1.32611,0.082 -2.66691,-0.0717 -3.99414,0.008 -2.09029,0.0336 -4.17336,0.18463 -6.21764,0.65572 -1.02144,0.24741 -1.54913,0.34446 -2.53666,0.7057 -1.37621,0.50345 -2.63905,1.29026 -4.05267,1.68949 -1.62472,0.30872 -3.24407,0.87379 -4.91306,0.74901 -1.61345,-0.11022 -3.21448,-0.3203 -4.82238,-0.48503 -0.77811,-0.0962 -1.54524,-0.20688 -2.312824,-0.36883 -0.481232,-0.10155 -0.952431,-0.25138 -1.4375,-0.33263 -0.20783,-0.0348 -0.419878,-0.0364 -0.629819,-0.0546 -1.477259,-0.16013 -2.942331,-0.42373 -4.43048,-0.46945 -1.303771,-0.0878 -2.590953,-0.10112 -3.864803,0.25196 -0.5505,0.15142 -1.115221,0.38566 -1.672241,0.49985 -0.515625,0.10573 -1.064636,0.0417 -1.576734,0.18354 -1.174387,0.19011 -2.382033,0.0306 -3.566157,0.14037 -1.354244,0.0721 -2.705529,0.17705 -4.052959,0.33223 -1.100466,-0.004 -2.201183,0.009 -3.301415,-0.0206 -1.006549,-0.0365 -2.026672,-0.0784 -2.996123,-0.37778 -0.464111,-0.1561 -0.936451,-0.40603 -1.413825,-0.51154 -0.53861,-0.11906 -1.118201,-0.0635 -1.655731,-0.20257 -1.107054,-0.15417 -2.236362,-0.097 -3.337073,-0.32263 -1.205479,-0.24368 -2.378292,-0.64519 -3.626239,-0.51118 -1.429869,0 -2.859741,0.003 -4.289613,0.003 -1.412168,-0.003 -2.82431,-0.0122 -4.236484,-0.006 -1.433298,0.006 -2.867647,-0.0148 -4.299829,0.0522 -1.519991,0.0786 -3.046238,0.16862 -4.542655,0.46265 -1.197972,0.19495 -2.400614,0.26551 -3.604765,0.0672 -1.306737,-0.17264 -2.607572,-0.25503 -3.9268,-0.15947 -1.203788,0.0459 -2.425811,0.10578 -3.568959,0.52322 -0.158089,0.0605 -0.321117,0.10943 -0.474263,0.18155 -0.133636,0.0629 -0.245298,0.16973 -0.383347,0.22228 -0.619324,0.23572 -1.333058,0.25929 -1.908466,0.63561 -0.569312,0.16341 -1.145546,0.42383 -1.724957,0.54086 -0.670311,0.13539 -1.379323,0.0999 -2.053902,0.20487 -1.721439,0.009 -3.443384,0.0246 -5.164521,-0.0156 0,0 -4.655974,3.38275 -4.655974,3.38275 z"
       id="path26"
       style="fill:#008000;stroke:#008000;stroke-width:0.264583" />
    <rect
       y="300.29196"
       x="31.191446"
       height="8.1709557"
       width="52.138481"
       id="rect28"
       style="fill:#800000;stroke:#800000;stroke-width:0.264583" />
    <rect
       y="86.7686"
       x="39.299248"
       height="214.38863"
       width="11.282025"
       id="rect30"
       style="fill:#800000;stroke:#800000;stroke-width:0.266259" />
    <rect
       y="78.98674"
       x="39.299248"
       height="7.7818627"
       width="91.436882"
       id="rect32"
       style="fill:#800000;stroke:#800000;stroke-width:0.264583" />
    <rect
       y="78.985901"
       x="114.78248"
       height="52.527576"
       width="1.9454657"
       id="rect34"
       style="fill:#ff9955;stroke:#ff9955;stroke-width:0.264583" />
    <ellipse
       ry="15.563725"
       rx="16.536459"
       cy="130.34621"
       cx="116.53339"
       id="path36"
       style="fill:#c8ab37;stroke:#ff9955;stroke-width:0.264583" />
    <ellipse
       ry="1.3618259"
       rx="1.9454657"
       cy="127.42799"
       cx="109.72427"
       id="path38"
       style="fill:#ff00ff;stroke:#000000;stroke-width:0.264583" />
    <ellipse
       style="fill:#ff00ff;stroke:#000000;stroke-width:0.264583"
       id="ellipse40"
       cx="122.17525"
       cy="127.42799"
       rx="1.9454657"
       ry="1.3618259" />
    <ellipse
       ry="0.97273284"
       rx="5.2527575"
       cy="136.37715"
       cx="116.14431"
       id="path42"
       style="fill:#ff0000;stroke:#000000;stroke-width:0.264583" />
    <rect
       inkscape:transform-center-y="-105.05515"
       inkscape:transform-center-x="-190.65564"
       y="145.90993"
       x="112.44791"
       height="46.691174"
       width="8.1709557"
       id="rect44"
       style="fill:#c8ab37;stroke:#000000;stroke-width:0.264583" />
  </g>
</svg>
